<svg width="300" height="338" viewBox="0 0 300 338" fill="none" xmlns="http://www.w3.org/2000/svg">
<g clip-path="url(#clip0_103:23)">
<path fill-rule="evenodd" clip-rule="evenodd" d="M273.153 302.063L299.77 3.90984L300.118 -0.000976562H296.197H4.03953H0.11792L0.466217 3.90984L27.0543 302.112L27.276 304.599L29.6711 305.262L148.984 338.384H150.898L270.536 305.213L272.93 304.55L273.153 302.063Z" fill="#1572B6"/>
<path fill-rule="evenodd" clip-rule="evenodd" d="M276.997 21.1478H150.118V316.654L253.167 288.083L276.997 21.1478Z" fill="#35A8DB"/>
<path fill-rule="evenodd" clip-rule="evenodd" d="M149.977 100.536L60.4872 137.807L63.4555 174.706L149.977 137.712L242.013 98.3634L245.829 60.6165L149.977 100.536Z" fill="#E9E9E8"/>
<path fill-rule="evenodd" clip-rule="evenodd" d="M149.977 60.6185H150.64H151.396H152.149H152.905H153.661H154.416H155.172H155.928H156.683H157.439H158.195H158.95H159.706H160.461H161.217H161.973H162.726H163.482H164.237H164.993H165.749H166.504H167.26H168.016H168.771H169.527H170.283H171.036H171.792H172.547H173.303H174.059H174.814H175.57H176.325H177.081H177.837H178.592H179.348H180.104H180.859H181.615H182.368H183.124H183.88H184.635H185.391H186.147H186.902H187.658H188.414H189.169H189.925H190.68H191.436H192.189H192.945H193.701H194.456H195.212H195.968H196.723H197.479H198.235H198.99H199.746H200.502H201.255H202.011H202.766H203.522H204.278H205.033H205.789H206.544H207.3H208.056H208.811H209.567H210.323H211.078H211.832H212.587H213.343H214.099H214.854H215.61H216.366H217.121H217.877H218.632H219.388H220.144H220.897H221.653H222.408H223.164H223.92H224.675H225.431H226.187H226.942H227.698H228.454H229.209H229.965H230.72H231.474H232.23H232.985H233.741H234.496H235.252H236.008H236.763H237.519H238.275H239.03H239.786H240.542H241.297H242.051H242.806H243.562H244.318H245.073H245.829L245.073 68.0899L244.318 75.5606L243.562 83.0313L242.806 90.5044L242.051 97.9753L242.013 98.3637H241.297H240.542H239.786H239.03H238.275H237.519H236.763H236.008H235.252H234.496H233.741H232.985H232.23H231.474H230.72H229.965H229.209H228.454H227.698H226.942H226.187H225.431H224.675H223.92H223.164H222.408H221.653H220.897H220.144H219.388H218.632H217.877H217.121H216.366H215.61H214.854H214.099H213.343H212.587H211.832H211.078H210.323H209.567H208.811H208.056H207.3H206.544H205.789H205.033H204.278H203.522H202.766H202.011H201.255H200.502H199.746H198.99H198.235H197.479H196.723H195.968H195.212H194.456H193.701H192.945H192.189H191.436H190.68H189.925H189.169H188.414H187.658H186.902H186.147H185.391H184.635H183.88H183.124H182.368H181.615H180.859H180.104H179.348H178.592H177.837H177.081H176.325H175.57H174.814H174.059H173.303H172.547H171.792H171.036H170.283H169.527H168.771H168.016H167.26H166.504H165.749H164.993H164.237H163.482H162.726H161.973H161.217H160.461H159.706H158.95H158.195H157.439H156.683H155.928H155.194H155.172H154.416H153.661H152.905H152.149H151.396H150.64H150.087H149.977H149.885H149.129H148.373H147.618H146.862H146.107H145.351H144.596H143.841H143.085H142.33H141.574H140.819H140.063H139.308H138.552H137.797H137.041H136.286H135.53H134.775H134.019H133.264H132.508H131.753H130.998H130.242H129.487H128.731H127.976H127.22H126.465H125.709H124.954H124.198H123.443H122.688H121.932H121.176H120.421H119.665H118.91H118.155H117.399H116.643H115.888H115.133H114.377H113.622H112.866H112.111H111.356H110.6H109.845H109.089H108.333H107.578H106.823H106.067H105.312H104.556H103.8H103.045H102.29H101.534H100.779H100.023H99.2678H98.5121H97.7569H97.0015H96.2459H95.4905H94.7348H93.9796H93.2242H92.4685H91.7131H90.9577H90.2023H89.4467H88.6912H87.9358H87.1802H86.4248H85.6696H84.9139H84.1585H83.4029H82.6475H81.8918H81.1366H80.3812H79.6256H78.8701H78.1145H77.3593H76.6037H75.8482H75.0928H74.3372H73.582H72.8264H72.0709H71.3155H70.5599H69.8045H69.049H68.2936H67.538H66.7826H66.0272H65.2715H64.5163H63.7609H63.0053H62.2496H61.4942H60.739H59.9834H59.2279H58.4725H57.7169H57.0934L56.9617 97.2961L56.2061 91.182L55.4506 85.0699L54.695 78.9554L53.9396 72.8434L53.1844 66.7311L52.429 60.6185H53.1844H53.9396H54.695H55.4506H56.2061H56.9617H57.7169H58.4725H59.2279H59.9834H60.739H61.4942H62.2496H63.0053H63.7609H64.5163H65.2715H66.0272H66.7826H67.538H68.2936H69.049H69.8045H70.5599H71.3155H72.0709H72.8264H73.582H74.3372H75.0928H75.8482H76.6037H77.3593H78.1145H78.8701H79.6256H80.3812H81.1366H81.8918H82.6475H83.4029H84.1585H84.9139H85.6696H86.4248H87.1802H87.9358H88.6912H89.4467H90.2023H90.9577H91.7131H92.4685H93.2242H93.9796H94.7348H95.4905H96.2459H97.0015H97.7569H98.5121H99.2678H100.023H100.779H101.534H102.29H103.045H103.8H104.556H105.312H106.067H106.823H107.578H108.333H109.089H109.845H110.6H111.356H112.111H112.866H113.622H114.377H115.133H115.888H116.643H117.399H118.155H118.91H119.665H120.421H121.176H121.932H122.688H123.443H124.198H124.954H125.709H126.465H127.22H127.976H128.731H129.487H130.242H130.998H131.753H132.508H133.264H134.019H134.775H135.53H136.286H137.041H137.797H138.552H139.308H140.063H140.819H141.574H142.33H143.085H143.841H144.596H145.351H146.107H146.862H147.618H148.373H149.129H149.885H149.977Z" fill="#E9E9E8"/>
<path fill-rule="evenodd" clip-rule="evenodd" d="M60.6254 137.812H238.761L235.516 175.131L63.5936 174.706L60.6254 137.812Z" fill="#E9E9E8"/>
<path fill-rule="evenodd" clip-rule="evenodd" d="M66.1915 195.494L105.159 195.509L107.701 226.023L149.977 236.508L193.379 224.327L196.316 174.426L235.631 173.809L228.581 254.863L150.118 277.768L71.0899 254.44L66.1915 195.494Z" fill="#E9E9E8"/>
<path fill-rule="evenodd" clip-rule="evenodd" d="M150.118 137.652L242.013 98.3634L245.829 60.6165L150.118 100.477V137.652Z" fill="#FFFFFE"/>
<path fill-rule="evenodd" clip-rule="evenodd" d="M150.118 60.6185H150.64H151.396H152.149H152.905H153.661H154.416H155.172H155.928H156.683H157.439H158.194H158.95H159.706H160.461H161.217H161.973H162.726H163.482H164.237H164.993H165.749H166.504H167.26H168.016H168.771H169.527H170.282H171.036H171.792H172.547H173.303H174.058H174.814H175.57H176.325H177.081H177.837H178.592H179.348H180.104H180.859H181.615H182.368H183.124H183.88H184.635H185.391H186.146H186.902H187.658H188.413H189.169H189.925H190.68H191.436H192.189H192.945H193.701H194.456H195.212H195.968H196.723H197.479H198.235H198.99H199.746H200.501H201.255H202.011H202.766H203.522H204.277H205.033H205.789H206.544H207.3H208.056H208.811H209.567H210.323H211.078H211.832H212.587H213.343H214.099H214.854H215.61H216.365H217.121H217.877H218.632H219.388H220.144H220.897H221.653H222.408H223.164H223.92H224.675H225.431H226.187H226.942H227.698H228.453H229.209H229.965H230.72H231.474H232.229H232.985H233.741H234.496H235.252H236.008H236.763H237.519H238.275H239.03H239.786H240.541H241.297H242.051H242.806H243.562H244.317H245.073H245.829L245.073 68.0899L244.317 75.5606L243.562 83.0313L242.806 90.5044L242.051 97.9753L242.013 98.3637H241.297H240.541H239.786H239.03H238.275H237.519H236.763H236.008H235.252H234.496H233.741H232.985H232.229H231.474H230.72H229.965H229.209H228.453H227.698H226.942H226.187H225.431H224.675H223.92H223.164H222.408H221.653H220.897H220.144H219.388H218.632H217.877H217.121H216.365H215.61H214.854H214.099H213.343H212.587H211.832H211.078H210.323H209.567H208.811H208.056H207.3H206.544H205.789H205.033H204.277H203.522H202.766H202.011H201.255H200.501H199.746H198.99H198.235H197.479H196.723H195.968H195.212H194.456H193.701H192.945H192.189H191.436H190.68H189.925H189.169H188.413H187.658H186.902H186.146H185.391H184.635H183.88H183.124H182.368H181.615H180.859H180.104H179.348H178.592H177.837H177.081H176.325H175.57H174.814H174.058H173.303H172.547H171.792H171.036H170.282H169.527H168.771H168.016H167.26H166.504H165.749H164.993H164.237H163.482H162.726H161.973H161.217H160.461H159.706H158.95H158.194H157.439H156.683H155.928H155.194H155.172H154.416H153.661H152.905H152.149H151.396H150.64H150.118V60.6185Z" fill="#FFFFFE"/>
<path fill-rule="evenodd" clip-rule="evenodd" d="M150.118 137.812H238.761L235.516 175.131L150.118 174.92V137.812Z" fill="#FFFFFE"/>
<path fill-rule="evenodd" clip-rule="evenodd" d="M150.118 236.468L193.379 224.327L196.316 174.426L235.631 173.809L228.581 254.863L150.118 277.768V277.766V236.468Z" fill="#FFFFFE"/>
</g>
<defs>
<clipPath id="clip0_103:23">
<rect width="300" height="338" fill="white"/>
</clipPath>
</defs>
</svg>
