<svg width="300" height="341" viewBox="0 0 300 341" fill="none" xmlns="http://www.w3.org/2000/svg">
<path d="M27.1543 306.375L-0.159912 -0.00683594H299.84L272.493 306.399L149.767 340.42L27.1543 306.375Z" fill="#E34E26"/>
<path d="M149.84 25.0365V314.396L249.079 286.887L272.459 25.0365H149.84Z" fill="#EF662A"/>
<path d="M55.7255 62.6174L65.8543 176.253H196.098L191.727 224.993L149.792 236.33L107.936 225.009L105.137 193.713H67.4179L72.8115 254.042L149.783 275.42L226.851 254.042L237.183 138.68H100.223L96.7841 100.198H240.474H240.589L243.955 62.6174H55.7255Z" fill="white"/>
<path d="M149.84 62.6174H55.7255L65.8543 176.253H149.84V138.68H100.223L96.7841 100.198H149.84V62.6174Z" fill="#EBEBEB"/>
<path d="M149.84 236.314L149.792 236.33L107.936 225.009L105.137 193.713H67.4178L72.8115 254.042L149.783 275.42L149.84 275.404V236.314Z" fill="#EBEBEB"/>
</svg>
