<svg width="300" height="343" viewBox="0 0 300 343" fill="none" xmlns="http://www.w3.org/2000/svg">
<g clip-path="url(#clip0_103:17)">
<path d="M27.7587 307.959L-0.0883789 0.128662L299.912 0.246153L272.299 307.724L149.678 342.502L27.7587 307.959ZM249.717 291.158L273.001 27.5044H150.146L151.082 318.299L249.717 291.158ZM138.679 66.1595H108.843L108.492 223.952L50.5746 208.091L50.6917 244.161L138.679 268.012V66.1595Z" fill="#D4B830"/>
<path opacity="0.986" d="M50.6916 244.161L50.5746 208.091C50.5746 208.091 87.5481 218.547 108.492 223.952L108.843 66.277H138.679V268.012L50.6916 244.161Z" fill="#EBEBEB" fill-opacity="0.9216"/>
<path d="M150.146 27.387H273.001L249.717 291.04L150.146 318.181V27.387ZM243.398 246.863L251.472 148.287L191.799 154.984V102.347L255.45 102.112L258.024 66.1595L161.963 66.6295L163.25 197.516L221.284 187.529L220.465 216.668L161.963 232.294L162.548 268.012L243.398 246.863Z" fill="#FDD83C"/>
</g>
<defs>
<clipPath id="clip0_103:17">
<rect width="300" height="343" fill="white"/>
</clipPath>
</defs>
</svg>
